<?xml version="1.0" encoding="UTF-8" standalone="no"?>
<!-- Created with Inkscape (http://www.inkscape.org/) -->

<svg
   xmlns:dc="http://purl.org/dc/elements/1.1/"
   xmlns:cc="http://creativecommons.org/ns#"
   xmlns:rdf="http://www.w3.org/1999/02/22-rdf-syntax-ns#"
   xmlns:svg="http://www.w3.org/2000/svg"
   xmlns="http://www.w3.org/2000/svg"
   xmlns:sodipodi="http://sodipodi.sourceforge.net/DTD/sodipodi-0.dtd"
   xmlns:inkscape="http://www.inkscape.org/namespaces/inkscape"
   inkscape:export-ydpi="90"
   inkscape:export-xdpi="90"
   inkscape:export-filename="C:\Documents and Settings\A481001\My Documents\Dropbox\ott\encoder.png"
   sodipodi:docname="encoder.svg"
   inkscape:version="0.48.2 r9819"
   version="1.1"
   id="svg2"
   height="1052.3622047"
   width="744.09448819">
  <sodipodi:namedview
     id="base"
     pagecolor="#ffffff"
     bordercolor="#666666"
     borderopacity="1.0"
     inkscape:pageopacity="0.0"
     inkscape:pageshadow="2"
     inkscape:zoom="0.45528359"
     inkscape:cx="263.96963"
     inkscape:cy="633.5819"
     inkscape:document-units="px"
     inkscape:current-layer="layer1"
     showgrid="false"
     inkscape:window-width="971"
     inkscape:window-height="729"
     inkscape:window-x="150"
     inkscape:window-y="58"
     inkscape:window-maximized="0" />
  <defs
     id="defs4" />
  <metadata
     id="metadata7">
    <rdf:RDF>
      <cc:Work
         rdf:about="">
        <dc:format>image/svg+xml</dc:format>
        <dc:type
           rdf:resource="http://purl.org/dc/dcmitype/StillImage" />
        <dc:title />
      </cc:Work>
    </rdf:RDF>
  </metadata>
  <g
     id="layer1"
     inkscape:groupmode="layer"
     inkscape:label="Layer 1">
    <g
       inkscape:label="Encoder disk"
       transform="translate(368.68114,405.23472)"
       id="g3512" />
    <g
       id="g4678"
       transform="translate(212.18375, 375.05796469999984)"
       inkscape:label="Encoder disk" />
    <g
       inkscape:label="Encoder disk"
       transform="translate(212.18375, 375.05796469999984)"
       id="g5748" />
    <g
       id="g5966"
       transform="translate(212.18375, 375.05796469999984)"
       inkscape:label="Encoder disk" />
    <path
       id="path4680-7"
       d="m 423.78856,701.7787 43.30127,-25 a 250,250 0 0 1 33.49365,125 l -50,0 a 200,200 0 0 0 -26.79492,-100 z"
       style="fill:#000000;stroke:#000000;stroke-width:1"
       inkscape:connector-curvature="0" />
    <circle
       d="M 250,0 C 250,138.07119 138.07119,250 0,250 -138.07119,250 -250,138.07119 -250,0 c 0,-138.07119 111.92881,-250 250,-250 138.07119,0 250,111.92881 250,250 z"
       transform="translate(250.58348,801.7787)"
       id="circle4688-4"
       r="250"
       style="fill:none;stroke:#000000;stroke-width:1"
       cx="0"
       cy="0"
       sodipodi:cx="0"
       sodipodi:cy="0"
       sodipodi:rx="250"
       sodipodi:ry="250" />
    <path
       id="path4690-8"
       d="m 450.58348,801.7787 49.99998,-2e-5 a 250,250 0 0 1 -33.49364,124.99999 l -43.30124,-24.99996 a 200,200 0 0 0 26.7949,-100.00001 z"
       style="fill:#000000;stroke:#000000;stroke-width:1"
       inkscape:connector-curvature="0" />
    <path
       id="path4692-8"
       d="m 401.06488,802.94091 50,0 a 200,200 0 0 1 -26.79491,100 l -43.30128,-25 a 150,150 0 0 0 20.09619,-75 z"
       style="fill:#000000;stroke:#000000;stroke-width:1"
       inkscape:connector-curvature="0" />
    <circle
       d="M 250,0 C 250,138.07119 138.07119,250 0,250 -138.07119,250 -250,138.07119 -250,0 c 0,-138.07119 111.92881,-250 250,-250 138.07119,0 250,111.92881 250,250 z"
       transform="translate(250.58348,801.7787)"
       id="circle4698-5"
       r="250"
       style="fill:none;stroke:#000000;stroke-width:1"
       cx="0"
       cy="0"
       sodipodi:cx="0"
       sodipodi:cy="0"
       sodipodi:rx="250"
       sodipodi:ry="250" />
    <path
       id="path4700-5"
       d="m 250.58348,1001.7788 -2e-5,50 a 250,250 0 0 1 -124.99998,-33.4937 l 25,-43.30132 a 200,200 0 0 0 100,26.79502 z"
       style="fill:#000000;stroke:#000000;stroke-width:1"
       inkscape:connector-curvature="0" />
    <circle
       d="M 250,0 C 250,138.07119 138.07119,250 0,250 -138.07119,250 -250,138.07119 -250,0 c 0,-138.07119 111.92881,-250 250,-250 138.07119,0 250,111.92881 250,250 z"
       transform="translate(250.58348,801.7787)"
       id="circle4708-1"
       r="250"
       style="fill:none;stroke:#000000;stroke-width:1"
       cx="0"
       cy="0"
       sodipodi:cx="0"
       sodipodi:cy="0"
       sodipodi:rx="250"
       sodipodi:ry="250" />
    <path
       id="path4710-5"
       d="m 150.55702,974.9685 -25,43.3013 A 250,250 0 0 1 34.050673,926.76342 l 43.30127,-25 a 200,200 0 0 0 73.205077,73.20508 z"
       style="fill:#000000;stroke:#000000;stroke-width:1"
       inkscape:connector-curvature="0" />
    <path
       id="path4712-2"
       d="m 326.83068,931.84671 24.99998,43.30123 a 200,200 0 0 1 -99.99998,26.79496 l 0,-50 a 150,150 0 0 0 75,-20.09619 z"
       style="fill:#000000;stroke:#000000;stroke-width:1"
       inkscape:connector-curvature="0" />
    <circle
       d="M 250,0 C 250,138.07119 138.07119,250 0,250 -138.07119,250 -250,138.07119 -250,0 c 0,-138.07119 111.92881,-250 250,-250 138.07119,0 250,111.92881 250,250 z"
       transform="translate(250.58348,801.7787)"
       id="circle4718-1"
       r="250"
       style="fill:none;stroke:#000000;stroke-width:1"
       cx="0"
       cy="0"
       sodipodi:cx="0"
       sodipodi:cy="0"
       sodipodi:rx="250"
       sodipodi:ry="250" />
    <circle
       d="M 250,0 C 250,138.07119 138.07119,250 0,250 -138.07119,250 -250,138.07119 -250,0 c 0,-138.07119 111.92881,-250 250,-250 138.07119,0 250,111.92881 250,250 z"
       transform="translate(250.58348,801.7787)"
       id="circle4728-2"
       r="250"
       style="fill:none;stroke:#000000;stroke-width:1"
       cx="0"
       cy="0"
       sodipodi:cx="0"
       sodipodi:cy="0"
       sodipodi:rx="250"
       sodipodi:ry="250" />
    <circle
       d="M 250,0 C 250,138.07119 138.07119,250 0,250 -138.07119,250 -250,138.07119 -250,0 c 0,-138.07119 111.92881,-250 250,-250 138.07119,0 250,111.92881 250,250 z"
       transform="translate(250.58348,801.7787)"
       id="circle4738-7"
       r="250"
       style="fill:none;stroke:#000000;stroke-width:1"
       cx="0"
       cy="0"
       sodipodi:cx="0"
       sodipodi:cy="0"
       sodipodi:rx="250"
       sodipodi:ry="250" />
    <path
       inkscape:connector-curvature="0"
       style="fill:#000000;stroke:#000000;stroke-width:1"
       d="m 200.58348,888.38124 -25,43.30127 A 150,150 0 0 1 120.67967,876.7787 l 43.30127,-25 a 100,100 0 0 0 36.60254,36.60254 z"
       id="path5750-6" />
    <path
       inkscape:connector-curvature="0"
       style="fill:#000000;stroke:#000000;stroke-width:1"
       d="m 225.58348,758.47743 -24.99999,-43.30128 a 100,100 0 0 1 49.99999,-13.39745 l 0,50 a 50,50 0 0 0 -25,6.69873 z"
       id="path5752-1" />
    <circle
       d="M 50,0 C 50,27.614237 27.614237,50 0,50 -27.614237,50 -50,27.614237 -50,0 c 0,-27.614237 22.385763,-50 50,-50 27.614237,0 50,22.385763 50,50 z"
       transform="matrix(-0.25881904,0.96592583,-0.96592583,-0.25881904,250.58389,801.7787)"
       sodipodi:ry="50"
       sodipodi:rx="50"
       sodipodi:cy="0"
       sodipodi:cx="0"
       cy="0"
       cx="0"
       style="fill:#ff0000;stroke:none"
       r="50"
       id="circle5774-3" />
    <path
       inkscape:connector-curvature="0"
       style="fill:#000000;stroke:#000000;stroke-width:1"
       d="m 300.58348,888.38124 25,43.30127 a 150,150 0 0 1 -75,20.09619 l 0,-50 a 100,100 0 0 0 50,-13.39746 z"
       id="path5800-3" />
    <path
       inkscape:connector-curvature="0"
       style="fill:#000000;stroke:#000000;stroke-width:1"
       d="m 200.58348,801.7787 -50,0 a 100,100 0 0 1 13.39746,-50 l 43.30127,25 a 50,50 0 0 0 -6.69873,25 z"
       id="path5802-1" />
    <circle
       d="M 250,0 C 250,138.07119 138.07119,250 0,250 -138.07119,250 -250,138.07119 -250,0 c 0,-138.07119 111.92881,-250 250,-250 138.07119,0 250,111.92881 250,250 z"
       transform="translate(250.58348,801.7787)"
       id="circle4688-4-8"
       r="250"
       style="fill:none;stroke:#000000;stroke-width:1"
       cx="0"
       cy="0"
       sodipodi:cx="0"
       sodipodi:cy="0"
       sodipodi:rx="250"
       sodipodi:ry="250" />
    <circle
       d="M 250,0 C 250,138.07119 138.07119,250 0,250 -138.07119,250 -250,138.07119 -250,0 c 0,-138.07119 111.92881,-250 250,-250 138.07119,0 250,111.92881 250,250 z"
       transform="translate(250.58348,801.7787)"
       id="circle4698-5-3"
       r="250"
       style="fill:none;stroke:#000000;stroke-width:1"
       cx="0"
       cy="0"
       sodipodi:cx="0"
       sodipodi:cy="0"
       sodipodi:rx="250"
       sodipodi:ry="250" />
    <path
       id="path4702-1-9"
       d="m 380.9687,877.94091 43.30127,25 a 200,200 0 0 1 -73.2051,73.20507 l -24.99998,-43.30127 a 150,150 0 0 0 54.90381,-54.9038 z"
       style="fill:#000000;stroke:#000000;stroke-width:1"
       inkscape:connector-curvature="0" />
    <circle
       d="M 250,0 C 250,138.07119 138.07119,250 0,250 -138.07119,250 -250,138.07119 -250,0 c 0,-138.07119 111.92881,-250 250,-250 138.07119,0 250,111.92881 250,250 z"
       transform="translate(250.58348,801.7787)"
       id="circle4708-1-0"
       r="250"
       style="fill:none;stroke:#000000;stroke-width:1"
       cx="0"
       cy="0"
       sodipodi:cx="0"
       sodipodi:cy="0"
       sodipodi:rx="250"
       sodipodi:ry="250" />
    <circle
       d="M 250,0 C 250,138.07119 138.07119,250 0,250 -138.07119,250 -250,138.07119 -250,0 c 0,-138.07119 111.92881,-250 250,-250 138.07119,0 250,111.92881 250,250 z"
       transform="translate(250.58348,801.7787)"
       id="circle4718-1-1"
       r="250"
       style="fill:none;stroke:#000000;stroke-width:1"
       cx="0"
       cy="0"
       sodipodi:cx="0"
       sodipodi:cy="0"
       sodipodi:rx="250"
       sodipodi:ry="250" />
    <circle
       d="M 250,0 C 250,138.07119 138.07119,250 0,250 -138.07119,250 -250,138.07119 -250,0 c 0,-138.07119 111.92881,-250 250,-250 138.07119,0 250,111.92881 250,250 z"
       transform="translate(250.58348,801.7787)"
       id="circle4728-2-9"
       r="250"
       style="fill:none;stroke:#000000;stroke-width:1"
       cx="0"
       cy="0"
       sodipodi:cx="0"
       sodipodi:cy="0"
       sodipodi:rx="250"
       sodipodi:ry="250" />
    <circle
       d="M 250,0 C 250,138.07119 138.07119,250 0,250 -138.07119,250 -250,138.07119 -250,0 c 0,-138.07119 111.92881,-250 250,-250 138.07119,0 250,111.92881 250,250 z"
       transform="matrix(-1,0,0,-1,250.58348,801.7787)"
       id="circle4738-7-6"
       r="250"
       style="fill:none;stroke:#000000;stroke-width:1"
       cx="0"
       cy="0"
       sodipodi:cx="0"
       sodipodi:cy="0"
       sodipodi:rx="250"
       sodipodi:ry="250" />
    <path
       inkscape:connector-curvature="0"
       id="path5968-5-6"
       d="m 250.58348,901.7787 0,50 a 150,150 0 0 1 -75,-20.09619 l 25,-43.30127 a 100,100 0 0 0 50,13.39746 z"
       style="fill:#000000;stroke:#000000;stroke-width:1" />
    <path
       inkscape:connector-curvature="0"
       id="path5970-0-6"
       d="m 207.28221,776.7787 -43.30126,-25 a 100,100 0 0 1 36.60253,-36.60255 l 25,43.30128 a 50,50 0 0 0 -18.30127,18.30127 z"
       style="fill:#000000;stroke:#000000;stroke-width:1" />
    <path
       inkscape:connector-curvature="0"
       id="path5978-0-0"
       d="m 163.98094,851.7787 -43.30127,25 a 150,150 0 0 1 -20.09619,-75 l 50,0 a 100,100 0 0 0 13.39746,50 z"
       style="fill:#000000;stroke:#000000;stroke-width:1" />
    <path
       inkscape:connector-curvature="0"
       id="path5980-2-1"
       d="m 250.58348,751.7787 -1e-5,-49.99999 a 100,100 0 0 1 50.00001,13.39746 l -25,43.30126 a 50,50 0 0 0 -25,-6.69873 z"
       style="fill:#000000;stroke:#000000;stroke-width:1" />
    <path
       id="path4722-2-4-2"
       d="m 251.78895,951.98463 -1e-5,50.00007 a 200,200 0 0 1 -99.99999,-26.79499 l 24.99999,-43.30127 a 150,150 0 0 0 75.00001,20.09619 z"
       style="fill:#000000;stroke:#000000;stroke-width:1"
       inkscape:connector-curvature="0" />
    <circle
       d="M 250,0 C 250,138.07119 138.07119,250 0,250 -138.07119,250 -250,138.07119 -250,0 c 0,-138.07119 111.92881,-250 250,-250 138.07119,0 250,111.92881 250,250 z"
       transform="matrix(-0.5,0.8660254,-0.8660254,-0.5,250.54174,801.82044)"
       id="circle4738-7-6-2"
       r="250"
       style="fill:none;stroke:#000000;stroke-width:1"
       cx="0"
       cy="0"
       sodipodi:cx="0"
       sodipodi:cy="0"
       sodipodi:rx="250"
       sodipodi:ry="250" />
    <path
       inkscape:connector-curvature="0"
       style="fill:#000000;stroke:#000000;stroke-width:1"
       d="m 150.6405,801.79398 -50,0 a 150,150 0 0 1 20.09619,-75 l 43.30127,25 a 100,100 0 0 0 -13.39746,50 z"
       id="path5750-6-9" />
    <path
       inkscape:connector-curvature="0"
       id="path5978-0-0-4"
       d="m 164.03796,751.79398 -43.30127,-25 a 150,150 0 0 1 54.90381,-54.90381 l 25,43.30127 a 100,100 0 0 0 -36.60254,36.60254 z"
       style="fill:#000000;stroke:#000000;stroke-width:1" />
    <circle
       d="M 250,0 C 250,138.07119 138.07119,250 0,250 -138.07119,250 -250,138.07119 -250,0 c 0,-138.07119 111.92881,-250 250,-250 138.07119,0 250,111.92881 250,250 z"
       transform="matrix(-0.8660254,-0.5,0.5,-0.8660254,250.58348,801.7787)"
       id="circle4738-7-6-2-1"
       r="250"
       style="fill:none;stroke:#000000;stroke-width:1"
       cx="0"
       cy="0"
       sodipodi:cx="0"
       sodipodi:cy="0"
       sodipodi:rx="250"
       sodipodi:ry="250" />
    <path
       id="path4712-2-9"
       d="M 174.33628,671.71069 149.3363,628.40946 a 200,200 0 0 1 99.99997,-26.79492 l 10e-6,49.99996 a 150,150 0 0 0 -75,20.09619 z"
       style="fill:#000000;stroke:#000000;stroke-width:1"
       inkscape:connector-curvature="0" />
    <path
       id="path4702-1-9-6"
       d="M 120.19826,725.61649 76.896953,700.61647 A 200,200 0 0 1 150.1021,627.41145 l 24.99997,43.30124 a 150,150 0 0 0 -54.90381,54.9038 z"
       style="fill:#000000;stroke:#000000;stroke-width:1"
       inkscape:connector-curvature="0" />
    <circle
       d="M 250,0 C 250,138.07119 138.07119,250 0,250 -138.07119,250 -250,138.07119 -250,0 c 0,-138.07119 111.92881,-250 250,-250 138.07119,0 250,111.92881 250,250 z"
       transform="matrix(0.8660254,0.5,-0.5,0.8660254,250.58348,801.7787)"
       id="circle4738-7-6-2-1-9"
       r="250"
       style="fill:none;stroke:#000000;stroke-width:1"
       cx="0"
       cy="0"
       sodipodi:cx="0"
       sodipodi:cy="0"
       sodipodi:rx="250"
       sodipodi:ry="250" />
    <g
       id="g3339"
       transform="translate(450.021,-520.02094)">
      <circle
         id="circle5774-3-1"
         r="50"
         style="fill:#ff0000;stroke:none"
         cx="0"
         cy="0"
         sodipodi:cx="0"
         sodipodi:cy="0"
         sodipodi:rx="50"
         sodipodi:ry="50"
         transform="matrix(-0.25881905,-0.96592583,0.96592583,-0.25881905,127.30225,925.06002)"
         d="M 50,0 C 50,27.614237 27.614237,50 0,50 -27.614237,50 -50,27.614237 -50,0 c 0,-27.614237 22.385763,-50 50,-50 27.614237,0 50,22.385763 50,50 z" />
      <path
         style="fill:#000000;stroke:#000000;stroke-width:1"
         d="m 127.30221,975.06002 3e-5,50.00008 A 100,100 0 0 1 77.302155,1011.6626 L 102.3022,968.36128 a 50,50 0 0 0 25.00001,6.69874 z"
         id="path5980-2-1-7"
         inkscape:connector-curvature="0" />
      <path
         transform="matrix(-0.8660254,0.5,-0.5,-0.8660254,557.11554,1436.5517)"
         d="m 242.2856,657.87152 c 0,69.4786 -56.32354,125.80214 -125.80214,125.80214 -69.478604,0 -125.8021398,-56.32354 -125.8021398,-125.80214 0,-69.4786 56.3235358,-125.80214 125.8021398,-125.80214 69.4786,0 125.80214,56.32354 125.80214,125.80214 z"
         sodipodi:ry="125.80214"
         sodipodi:rx="125.80214"
         sodipodi:cy="657.87152"
         sodipodi:cx="116.48346"
         id="path3064"
         style="fill:none;stroke:#000000;stroke-width:3;stroke-miterlimit:4;stroke-opacity:1;stroke-dasharray:none;stroke-dashoffset:0"
         sodipodi:type="arc" />
      <path
         style="fill:#000000;stroke:#000000;stroke-width:1"
         d="M 102.3022,968.36128 77.302166,1011.6625 A 100,100 0 0 1 40.699697,975.05995 l 43.30123,-24.99994 a 50,50 0 0 0 18.301273,18.30127 z"
         id="path5980-2-1-7-8"
         inkscape:connector-curvature="0" />
      <path
         style="fill:#000000;stroke:#000000;stroke-width:1"
         d="m 170.59586,900.08882 43.30139,-25.00011 a 100,100 0 0 1 13.39741,50.00017 l -50.00007,-6e-5 a 50,50 0 0 0 -6.69873,-25 z"
         id="path5980-2-1-7-2"
         inkscape:connector-curvature="0" />
      <path
         style="fill:#000000;stroke:#000000;stroke-width:1"
         d="m 177.29459,925.08882 50.00007,6e-5 a 100,100 0 0 1 -13.3976,49.99996 l -43.3012,-25.00002 a 50,50 0 0 0 6.69873,-25 z"
         id="path5980-2-1-7-8-5"
         inkscape:connector-curvature="0" />
      <flowRoot
         transform="translate(2.528707,9.7963741)"
         style="font-size:48px;font-style:normal;font-weight:normal;text-align:center;line-height:125%;letter-spacing:0px;word-spacing:0px;text-anchor:middle;fill:#000000;fill-opacity:1;stroke:none;font-family:Sans"
         id="flowRoot3120"
         xml:space="preserve"><flowRegion
           id="flowRegion3122"><rect
             style="font-size:48px;text-align:center;text-anchor:middle"
             y="892.39154"
             x="94.739883"
             height="63.677624"
             width="63.677624"
             id="rect3124" /></flowRegion><flowPara
           id="flowPara3126">4</flowPara></flowRoot>    </g>
    <g
       id="g3173"
       transform="translate(251.85156,-214.95449)">
      <circle
         id="circle5774-3-1-1"
         r="50"
         style="fill:#ff0000;stroke:none"
         cx="0"
         cy="0"
         sodipodi:cx="0"
         sodipodi:cy="0"
         sodipodi:rx="50"
         sodipodi:ry="50"
         transform="matrix(-0.25881904,0.96592583,-0.96592583,-0.25881904,-74.549426,355.01449)"
         d="M 50,0 C 50,27.614237 27.614237,50 0,50 -27.614237,50 -50,27.614237 -50,0 c 0,-27.614237 22.385763,-50 50,-50 27.614237,0 50,22.385763 50,50 z" />
      <path
         style="fill:#000000;stroke:#000000;stroke-width:1"
         d="m -99.549396,311.71329 -25.000044,-43.30131 a 100,100 0 0 1 50.000094,-13.39743 l -4e-5,50.00004 a 50,50 0 0 0 -25.00001,6.6987 z"
         id="path5980-2-1-7-7"
         inkscape:connector-curvature="0" />
      <path
         transform="translate(-191.03288,-302.85699)"
         d="m 242.2856,657.87152 c 0,69.4786 -56.32354,125.80214 -125.80214,125.80214 -69.478604,0 -125.8021398,-56.32354 -125.8021398,-125.80214 0,-69.4786 56.3235358,-125.80214 125.8021398,-125.80214 69.4786,0 125.80214,56.32354 125.80214,125.80214 z"
         sodipodi:ry="125.80214"
         sodipodi:rx="125.80214"
         sodipodi:cy="657.87152"
         sodipodi:cx="116.48346"
         id="path3064-1"
         style="fill:none;stroke:#000000;stroke-width:3;stroke-miterlimit:4;stroke-opacity:1;stroke-dasharray:none;stroke-dashoffset:0"
         sodipodi:type="arc" />
      <path
         style="fill:#000000;stroke:#000000;stroke-width:1"
         d="m -74.549386,305.01459 3e-5,-50.00003 a 100,100 0 0 1 49.99997,13.39756 l -25,43.30117 a 50,50 0 0 0 -25,-6.6987 z"
         id="path5980-2-1-7-8-1"
         inkscape:connector-curvature="0" />
      <path
         style="fill:#000000;stroke:#000000;stroke-width:1"
         d="m -124.52837,354.99339 -50.00006,0 a 100,100 0 0 1 13.39753,-50 l 43.30127,25 a 50,50 0 0 0 -6.69874,25 z"
         id="path5980-2-1-7-2-5"
         inkscape:connector-curvature="0" />
      <path
         style="fill:#000000;stroke:#000000;stroke-width:1"
         d="m -117.82963,329.99339 -43.30127,-25 a 100,100 0 0 1 36.60262,-36.60248 l 24.999924,43.30128 a 50,50 0 0 0 -18.301274,18.3012 z"
         id="path5980-2-1-7-8-5-2"
         inkscape:connector-curvature="0" />
      <flowRoot
         transform="translate(-199.32286,-560.24925)"
         style="font-size:48px;font-style:normal;font-weight:normal;text-align:center;line-height:125%;letter-spacing:0px;word-spacing:0px;text-anchor:middle;fill:#000000;fill-opacity:1;stroke:none;font-family:Sans"
         id="flowRoot3120-7"
         xml:space="preserve"><flowRegion
           id="flowRegion3122-6"><rect
             style="font-size:48px;text-align:center;text-anchor:middle"
             y="892.39154"
             x="94.739883"
             height="63.677624"
             width="63.677624"
             id="rect3124-1" /></flowRegion><flowPara
           id="flowPara3126-4">1</flowPara></flowRoot>    </g>
    <g
       id="g3260"
       transform="translate(201.46985,-875.04844)">
      <circle
         id="circle5774-3-1-16"
         r="50"
         style="fill:#ff0000;stroke:none"
         cx="0"
         cy="0"
         sodipodi:cx="0"
         sodipodi:cy="0"
         sodipodi:rx="50"
         sodipodi:ry="50"
         transform="matrix(0.70710679,0.70710678,-0.70710678,0.70710679,375.85329,1015.0875)"
         d="M 50,0 C 50,27.614237 27.614237,50 0,50 -27.614237,50 -50,27.614237 -50,0 c 0,-27.614237 22.385763,-50 50,-50 27.614237,0 50,22.385763 50,50 z" />
      <path
         style="fill:#000000;stroke:#000000;stroke-width:1"
         d="m 325.85335,1015.0875 -50.00006,0 a 100,100 0 0 1 13.39753,-50.00007 l 43.30127,25.00005 a 50,50 0 0 0 -6.69874,25.00002 z"
         id="path5980-2-1-7-85"
         inkscape:connector-curvature="0" />
      <path
         transform="matrix(0.5,-0.8660254,0.8660254,0.5,-252.12188,787.02935)"
         d="m 242.2856,657.87152 c 0,69.4786 -56.32354,125.80214 -125.80214,125.80214 -69.478604,0 -125.8021398,-56.32354 -125.8021398,-125.80214 0,-69.4786 56.3235358,-125.80214 125.8021398,-125.80214 69.4786,0 125.80214,56.32354 125.80214,125.80214 z"
         sodipodi:ry="125.80214"
         sodipodi:rx="125.80214"
         sodipodi:cy="657.87152"
         sodipodi:cx="116.48346"
         id="path3064-7"
         style="fill:none;stroke:#000000;stroke-width:3;stroke-miterlimit:4;stroke-opacity:1;stroke-dasharray:none;stroke-dashoffset:0"
         sodipodi:type="arc" />
      <path
         style="fill:#000000;stroke:#000000;stroke-width:1"
         d="m 332.55209,990.08748 -43.30127,-25.00004 a 100,100 0 0 1 36.60261,-36.60246 l 24.99993,43.30123 a 50,50 0 0 0 -18.30127,18.30127 z"
         id="path5980-2-1-7-8-6"
         inkscape:connector-curvature="0" />
      <path
         style="fill:#000000;stroke:#000000;stroke-width:1"
         d="m 350.84554,1058.36 -25.00001,43.3013 a 100,100 0 0 1 -36.60257,-36.6026 l 43.30132,-25 a 50,50 0 0 0 18.30126,18.3013 z"
         id="path5980-2-1-7-2-1"
         inkscape:connector-curvature="0" />
      <path
         style="fill:#000000;stroke:#000000;stroke-width:1"
         d="m 332.54428,1040.0587 -43.30131,25 a 100,100 0 0 1 -13.39735,-50.0001 l 49.99993,1e-4 a 50,50 0 0 0 6.69873,25 z"
         id="path5980-2-1-7-8-5-8"
         inkscape:connector-curvature="0" />
      <flowRoot
         transform="translate(251.07986,99.823699)"
         style="font-size:48px;font-style:normal;font-weight:normal;text-align:center;line-height:125%;letter-spacing:0px;word-spacing:0px;text-anchor:middle;fill:#000000;fill-opacity:1;stroke:none;font-family:Sans"
         id="flowRoot3120-9"
         xml:space="preserve"><flowRegion
           id="flowRegion3122-2"><rect
             style="font-size:48px;text-align:center;text-anchor:middle"
             y="892.39154"
             x="94.739883"
             height="63.677624"
             width="63.677624"
             id="rect3124-7" /></flowRegion><flowPara
           id="flowPara3126-9">2</flowPara></flowRoot>      <path
         style="fill:#000000;stroke:#000000;stroke-width:1"
         d="m 400.84549,1058.36 25.00008,43.3013 a 100,100 0 0 1 -50.00014,13.3974 l 5e-5,-50 a 50,50 0 0 0 25.00001,-6.6987 z"
         id="path5980-2-1-7-2-3-5"
         inkscape:connector-curvature="0" />
      <path
         style="fill:#000000;stroke:#000000;stroke-width:1"
         d="m 375.84548,1065.0587 -5e-5,50 a 100,100 0 0 1 -49.99996,-13.3976 l 25.00002,-43.3011 a 50,50 0 0 0 24.99999,6.6987 z"
         id="path5980-2-1-7-8-5-22-4"
         inkscape:connector-curvature="0" />
    </g>
    <g
       id="g3325"
       transform="translate(-78.940473,-431.44047)">
      <circle
         id="circle5774-3-1-3"
         r="50"
         style="fill:#ff0000;stroke:none"
         cx="0"
         cy="0"
         sodipodi:cx="0"
         sodipodi:cy="0"
         sodipodi:rx="50"
         sodipodi:ry="50"
         transform="matrix(0.96592583,-0.25881905,0.25881905,0.96592583,256.26362,836.47955)"
         d="M 50,0 C 50,27.614237 27.614237,50 0,50 -27.614237,50 -50,27.614237 -50,0 c 0,-27.614237 22.385763,-50 50,-50 27.614237,0 50,22.385763 50,50 z" />
      <path
         style="fill:#000000;stroke:#000000;stroke-width:1"
         d="M 212.96239,811.47958 169.66105,786.47956 A 100,100 0 0 1 206.26369,749.877 l 24.99998,43.30131 a 50,50 0 0 0 -18.30128,18.30127 z"
         id="path5980-2-1-7-1"
         inkscape:connector-curvature="0" />
      <path
         transform="matrix(-0.5,-0.8660254,0.8660254,-0.5,-255.2281,1266.2929)"
         d="m 242.2856,657.87152 c 0,69.4786 -56.32354,125.80214 -125.80214,125.80214 -69.478604,0 -125.8021398,-56.32354 -125.8021398,-125.80214 0,-69.4786 56.3235358,-125.80214 125.8021398,-125.80214 69.4786,0 125.80214,56.32354 125.80214,125.80214 z"
         sodipodi:ry="125.80214"
         sodipodi:rx="125.80214"
         sodipodi:cy="657.87152"
         sodipodi:cx="116.48346"
         id="path3064-2"
         style="fill:none;stroke:#000000;stroke-width:3;stroke-miterlimit:4;stroke-opacity:1;stroke-dasharray:none;stroke-dashoffset:0"
         sodipodi:type="arc" />
      <path
         style="fill:#000000;stroke:#000000;stroke-width:1"
         d="m 231.26367,793.17831 -24.99998,-43.3013 a 100,100 0 0 1 50.00002,-13.39736 l -4e-5,49.99993 a 50,50 0 0 0 -25,6.69873 z"
         id="path5980-2-1-7-8-3"
         inkscape:connector-curvature="0" />
      <path
         style="fill:#000000;stroke:#000000;stroke-width:1"
         d="m 281.23481,879.77314 25.00009,43.30136 a 100,100 0 0 1 -50.00015,13.3974 l 6e-5,-50.00003 a 50,50 0 0 0 25,-6.69873 z"
         id="path5980-2-1-7-2-34"
         inkscape:connector-curvature="0" />
      <path
         style="fill:#000000;stroke:#000000;stroke-width:1"
         d="m 256.23481,886.47187 -5e-5,50.00003 a 100,100 0 0 1 -49.99997,-13.3976 l 25.00002,-43.30117 a 50,50 0 0 0 25,6.69874 z"
         id="path5980-2-1-7-8-5-1"
         inkscape:connector-curvature="0" />
      <flowRoot
         transform="translate(131.49017,-78.784234)"
         style="font-size:48px;font-style:normal;font-weight:normal;text-align:center;line-height:125%;letter-spacing:0px;word-spacing:0px;text-anchor:middle;fill:#000000;fill-opacity:1;stroke:none;font-family:Sans"
         id="flowRoot3120-1"
         xml:space="preserve"><flowRegion
           id="flowRegion3122-3"><rect
             style="font-size:48px;text-align:center;text-anchor:middle"
             y="892.39154"
             x="94.739883"
             height="63.677624"
             width="63.677624"
             id="rect3124-8" /></flowRegion><flowPara
           id="flowPara3126-7">3</flowPara></flowRoot>      <path
         style="fill:#000000;stroke:#000000;stroke-width:1"
         d="m 306.23478,836.47192 50.00013,-10e-6 a 100,100 0 0 1 -13.39757,50.00005 l -43.30128,-25.00003 a 50,50 0 0 0 6.69872,-25.00001 z"
         id="path5980-2-1-7-2-3-4"
         inkscape:connector-curvature="0" />
      <path
         style="fill:#000000;stroke:#000000;stroke-width:1"
         d="m 299.53606,861.47193 43.30128,25.00003 A 100,100 0 0 1 306.23467,923.0744 L 281.2348,879.77319 a 50,50 0 0 0 18.30126,-18.30126 z"
         id="path5980-2-1-7-8-5-22-2"
         inkscape:connector-curvature="0" />
    </g>
  </g>
</svg>
